<?xml version="1.0" encoding="UTF-8"?>
<svg version="1.1" xmlns="http://www.w3.org/2000/svg" width="1354" height="575">
<path d="M0 0 C0.6388916 0.45101074 1.2777832 0.90202148 1.93603516 1.36669922 C11.00894166 7.83983111 19.47121831 14.76206888 27.47070312 22.52197266 C28.97122304 23.97218778 30.49159414 25.39878417 32.015625 26.82421875 C40.37311432 34.76417473 47.30785924 43.63395287 54 53 C54.47824219 53.66596191 54.95648438 54.33192383 55.44921875 55.01806641 C87.09536594 99.72822184 99.46547211 157.92649395 90.54345703 211.75439453 C83.48490972 252.10541763 66.26924727 289.44947524 38.30859375 319.50390625 C36.26946311 321.70865156 34.31479213 323.95831814 32.375 326.25 C28.88459204 330.23903767 25.08885363 333.63460862 21 337 C20.21858643 337.6499292 20.21858643 337.6499292 19.42138672 338.31298828 C-25.52344045 375.57968819 -81.22822608 392.5191141 -139.36328125 387.5390625 C-166.73792637 384.60083043 -192.80689541 375.97971447 -217 363 C-217.97912354 362.48832275 -217.97912354 362.48832275 -218.97802734 361.96630859 C-243.61226068 349.06952757 -266.02408307 329.98237379 -283 308 C-283.63373535 307.18885742 -283.63373535 307.18885742 -284.28027344 306.36132812 C-306.69177639 277.51613587 -321.18855698 243.0122217 -327 207 C-327.12842285 206.23671387 -327.2568457 205.47342773 -327.38916016 204.68701172 C-336.00318156 151.40055484 -320.9675172 94.40499708 -289.94628906 50.66699219 C-283.40135374 41.67270295 -276.26078455 33.424177 -268.46582031 25.49658203 C-267.23791775 24.24291069 -266.03390785 22.96589776 -264.8359375 21.68359375 C-259.33364492 15.88862604 -253.0216011 11.09931406 -246.67382812 6.27685547 C-245.23508065 5.17932786 -243.81131011 4.06221621 -242.390625 2.94140625 C-173.51673078 -49.81073248 -70.26061907 -49.62682344 0 0 Z " fill="#5669A5" transform="translate(412,117)"/>
<path d="M0 0 C3.14291686 2.10619081 4.36964482 3.6305993 6 7 C6.99 7.66 7.98 8.32 9 9 C14.49964117 17.20295834 15.87990915 24.60508479 15.8046875 34.30859375 C15.82558693 36.20024513 15.82558693 36.20024513 15.84690857 38.13011169 C15.8784925 41.53002459 15.88419262 44.92793091 15.87656021 48.32784271 C15.87393153 51.8822468 15.90208141 55.43642024 15.92651367 58.99072266 C15.96262854 64.80913508 15.97786955 70.62728457 15.98095703 76.44580078 C15.9860019 83.25862128 16.04717458 90.06899358 16.13555908 96.88130188 C16.19740919 101.73694806 16.24142987 106.59264363 16.28106689 111.44851685 C16.30185487 113.71458788 16.32825176 115.98061509 16.36053467 118.24655151 C16.40208957 121.39115587 16.41734402 124.53484301 16.42578125 127.6796875 C16.45193764 129.03651894 16.45193764 129.03651894 16.47862244 130.42076111 C16.45239411 138.28578849 14.1694579 144.68200557 9.875 151.25 C2.00700549 158.7759078 -5.61693959 161.43944334 -16.3515625 161.33984375 C-24.2198376 160.60693162 -30.29927631 156.64182973 -35.53515625 150.8515625 C-41.68347374 143.08008919 -42.11667437 134.57710947 -43 125 C-43.32049316 125.54599854 -43.64098633 126.09199707 -43.97119141 126.65454102 C-51.93117954 140.20228877 -60.0169886 153.66694113 -68.21191406 167.07373047 C-71.25031431 172.04618615 -74.28171363 177.022901 -77.3125 182 C-77.89773438 182.96059326 -78.48296875 183.92118652 -79.0859375 184.91088867 C-82.01435331 189.72156038 -84.93058621 194.53884329 -87.81713867 199.37475586 C-88.89314145 201.17575332 -89.97494049 202.97312934 -91.05859375 204.76953125 C-92.31608327 206.86197356 -93.55926419 208.96310923 -94.78515625 211.07421875 C-99.82602529 219.4909773 -105.85065899 226.96804606 -115.68359375 229.6015625 C-124.35988411 231.09394297 -132.24239669 230.29205935 -139.57421875 225.21875 C-145.58058473 220.2628247 -149.09882143 215.19169075 -152.12060547 208.06933594 C-153.19210632 205.54794748 -154.30164946 203.04439873 -155.41015625 200.5390625 C-159.38498824 191.5128046 -163.30408182 182.46355194 -166.96484375 173.3046875 C-168.11934146 170.73429636 -169.55015956 168.41380942 -171 166 C-171.71632036 164.07895903 -172.43060505 162.15703876 -173.12109375 160.2265625 C-174.08338571 157.78875621 -175.2302669 155.51336194 -176.4375 153.1875 C-179.12229628 147.95621513 -181.10794894 142.55988188 -183 137 C-184.90495539 139.85743308 -186.08849021 142.45379435 -187.375 145.625 C-188.81308961 149.15991703 -190.28851016 152.66947902 -191.84765625 156.15234375 C-194.33237434 161.71382346 -196.696395 167.32475028 -199.0625 172.9375 C-200.0390336 175.25001221 -201.01559696 177.56251184 -201.9921875 179.875 C-202.48944336 181.05320312 -202.98669922 182.23140625 -203.49902344 183.4453125 C-206.35735026 190.21454453 -209.22378879 196.98034624 -212.08862305 203.74682617 C-214.06985909 208.42862304 -216.04929771 213.11106244 -218.01171875 217.80078125 C-219.99467134 222.53946609 -221.99230082 227.27174651 -224 232 C-224.50885742 233.19898926 -225.01771484 234.39797852 -225.54199219 235.63330078 C-226.9796611 239.01585075 -228.42550248 242.39483391 -229.87554932 245.77209473 C-230.45262413 247.11861606 -231.02766038 248.46601311 -231.6005249 249.81433105 C-232.41020312 251.71859735 -233.22764271 253.61935912 -234.046875 255.51953125 C-234.75602051 257.17625854 -234.75602051 257.17625854 -235.47949219 258.86645508 C-239.96648652 268.11349622 -245.79503149 273.82963368 -255.4609375 277.3046875 C-263.30086236 279.45162077 -269.94339259 277.85837082 -277 274 C-283.58042012 269.45582876 -288.4576533 263.6270401 -291 256 C-293.11518895 240.39549288 -286.76089236 228.37119244 -279.859375 214.77734375 C-278.18161602 211.44440778 -276.79440801 208.06527303 -275.5 204.5625 C-273.84606565 200.17706802 -272.09959597 195.88782342 -270.15625 191.625 C-268.57254447 188.02956041 -267.10554683 184.3888959 -265.625 180.75 C-263.52703829 175.59491245 -261.34140295 170.52232743 -258.9375 165.5 C-256.6284652 160.6070453 -254.79137515 155.6783728 -253.0625 150.5625 C-250.76178067 143.7672102 -247.95456498 137.49303603 -244.61328125 131.1484375 C-242.39211366 126.81366492 -240.4183019 122.52381405 -239.125 117.8125 C-237.25553297 111.47708396 -234.87618093 105.09711274 -231.4453125 99.43359375 C-230.02243902 97.03778246 -229.14353429 94.83889511 -228.3125 92.1875 C-228.06113281 91.39730469 -227.80976563 90.60710937 -227.55078125 89.79296875 C-227.36902344 89.20128906 -227.18726563 88.60960937 -227 88 C-226.34 88 -225.68 88 -225 88 C-224.9175 87.030625 -224.835 86.06125 -224.75 85.0625 C-224.19318633 81.1957384 -222.82347084 78.03424223 -221.171875 74.515625 C-219.87244167 71.72617478 -218.68043889 68.90429734 -217.5 66.0625 C-217.07074219 65.04414063 -216.64148438 64.02578125 -216.19921875 62.9765625 C-215.45873447 61.1386178 -214.7635015 59.28078538 -214.14453125 57.3984375 C-211.17449563 48.61382512 -204.96031991 40.68314287 -196.625 36.375 C-187.47099667 32.90279184 -179.62811172 33.14530228 -170.49609375 36.78515625 C-167.05734377 38.45878887 -164.6675937 40.26030917 -162 43 C-162 43.66 -162 44.32 -162 45 C-161.34 45 -160.68 45 -160 45 C-158.72660518 47.51956743 -157.45623358 50.04058649 -156.1875 52.5625 C-155.83107422 53.26697266 -155.47464844 53.97144531 -155.10742188 54.69726562 C-148.52705685 67.79762535 -148.52705685 67.79762535 -149 73 C-148.34 73 -147.68 73 -147 73 C-146.01 77.455 -146.01 77.455 -145 82 C-144.34 82 -143.68 82 -143 82 C-142.01 86.455 -142.01 86.455 -141 91 C-140.34 91 -139.68 91 -139 91 C-138.72027344 91.83660156 -138.44054687 92.67320312 -138.15234375 93.53515625 C-135.47739377 101.30197244 -132.38615553 108.68898365 -128.84765625 116.09765625 C-126.84180705 120.30207983 -124.93962559 124.54927934 -123.0625 128.8125 C-122.60254639 129.84479736 -122.60254639 129.84479736 -122.13330078 130.89794922 C-120 135.76266102 -120 135.76266102 -120 138 C-119.34 138 -118.68 138 -118 138 C-117.73735352 137.29133789 -117.47470703 136.58267578 -117.20410156 135.85253906 C-115.93213068 132.8392163 -114.4199287 130.16176029 -112.734375 127.359375 C-112.09113281 126.28816406 -111.44789063 125.21695313 -110.78515625 124.11328125 C-110.11355469 123.00339844 -109.44195312 121.89351563 -108.75 120.75 C-108.09386719 119.65558594 -107.43773437 118.56117188 -106.76171875 117.43359375 C-103.38768223 111.83255897 -99.92230849 106.32877394 -96.25976562 100.91259766 C-94.64167011 98.45597745 -93.23812916 95.91802402 -91.875 93.3125 C-89.76697847 89.36615159 -87.539828 85.67837158 -85 82 C-84.2575 80.7315625 -84.2575 80.7315625 -83.5 79.4375 C-82 77 -82 77 -80.1875 74.875 C-77.52493646 71.37563078 -75.58038698 67.66165197 -73.51953125 63.78515625 C-72.17948098 61.32897156 -70.76291125 58.97692988 -69.25 56.625 C-67.46180158 53.82880438 -66.17735034 51.11156874 -65 48 C-63.5 45.1875 -63.5 45.1875 -62 43 C-61.34 43 -60.68 43 -60 43 C-59.731875 41.865625 -59.46375 40.73125 -59.1875 39.5625 C-58.5996875 37.7990625 -58.5996875 37.7990625 -58 36 C-57.01 35.67 -56.02 35.34 -55 35 C-54.67 33.35 -54.34 31.7 -54 30 C-53.34 30 -52.68 30 -52 30 C-51.77699219 29.02160156 -51.55398438 28.04320312 -51.32421875 27.03515625 C-49.97127119 22.32177627 -47.48646956 18.50815732 -44.8125 14.4375 C-44.12704102 13.34405273 -44.12704102 13.34405273 -43.42773438 12.22851562 C-33.26346433 -3.43376456 -17.04453372 -8.25983076 0 0 Z " fill="#FDFDFE" transform="translate(418,146)"/>
<path d="M0 0 C11.22 0 22.44 0 34 0 C34 17.49 34 34.98 34 53 C52.48 53 70.96 53 90 53 C90 35.51 90 18.02 90 0 C101.22 0 112.44 0 124 0 C124 46.2 124 92.4 124 140 C112.78 140 101.56 140 90 140 C90 121.19 90 102.38 90 83 C71.52 83 53.04 83 34 83 C34 101.81 34 120.62 34 140 C22.78 140 11.56 140 0 140 C-0.33 106.01 -0.66 72.02 -1 37 C-13.47703225 57.7892116 -13.47703225 57.7892116 -25.875 78.625 C-27.41356279 81.22165068 -28.95259703 83.81802101 -30.4921875 86.4140625 C-30.86662491 87.04546143 -31.24106232 87.67686035 -31.62684631 88.32739258 C-34.23349323 92.71881236 -36.85715183 97.09977612 -39.48828125 101.4765625 C-42.55073872 106.57118327 -45.59141319 111.67807491 -48.61328125 116.796875 C-82.09744719 173.50504655 -82.09744719 173.50504655 -97.43359375 178.45703125 C-105.76839033 180.22040526 -114.08448446 180.12349292 -122.5625 180.0625 C-123.76197266 180.05798828 -124.96144531 180.05347656 -126.19726562 180.04882812 C-129.13156359 180.03713769 -132.06575449 180.02075138 -135 180 C-134.4348002 173.96128638 -133.49095242 168.29450965 -131.9375 162.4375 C-131.75123047 161.71498047 -131.56496094 160.99246094 -131.37304688 160.24804688 C-130.92085935 158.49726953 -130.46123825 156.74841475 -130 155 C-129.39526855 154.95512451 -128.79053711 154.91024902 -128.16748047 154.86401367 C-125.40215196 154.65143864 -122.63875201 154.41964055 -119.875 154.1875 C-118.92367187 154.11724609 -117.97234375 154.04699219 -116.9921875 153.97460938 C-110.75108858 153.43284732 -105.61552818 152.69990006 -101.0625 148 C-98.4762272 140.69758269 -101.34003888 131.29096147 -102.67407227 123.80273438 C-102.84002899 122.85009705 -103.00598572 121.89745972 -103.17697144 120.91595459 C-103.71938806 117.80782698 -104.26794391 114.7008159 -104.81640625 111.59375 C-105.19658218 109.41955484 -105.57628963 107.24527771 -105.95555115 105.07092285 C-106.94969547 99.37678071 -107.94870862 93.68350519 -108.94921875 87.99047852 C-110.55499668 78.85122409 -112.15535415 69.71102574 -113.75184441 60.57014465 C-114.31015395 57.37948106 -114.87179854 54.18941689 -115.43373108 50.99938965 C-115.7743851 49.0536512 -116.11492196 47.10789223 -116.45532227 45.16210938 C-116.61271378 44.27380432 -116.77010529 43.38549927 -116.93226624 42.47027588 C-117.07386169 41.65746155 -117.21545715 40.84464722 -117.36134338 40.00720215 C-117.48540841 39.30156883 -117.60947344 38.59593552 -117.73729801 37.86891937 C-118 36 -118 36 -118 33 C-113.03377651 32.97534902 -108.06758834 32.95716351 -103.10131836 32.94506836 C-101.41055684 32.9400281 -99.71979971 32.93319595 -98.02905273 32.92456055 C-95.60399293 32.91248143 -93.17899056 32.90676877 -90.75390625 32.90234375 C-89.61327477 32.89460182 -89.61327477 32.89460182 -88.44960022 32.88670349 C-86.6326743 32.88650762 -84.81586873 32.93802723 -83 33 C-81.2329416 34.7670584 -81.57522594 37.35158656 -81.3515625 39.75732422 C-81.23474121 40.98885223 -81.11791992 42.22038025 -80.99755859 43.48922729 C-80.93687195 44.15152218 -80.8761853 44.81381706 -80.81365967 45.49618149 C-80.62412906 47.56419047 -80.42923289 49.63163065 -80.23291016 51.69900513 C-79.81694398 56.09054156 -79.40828145 60.48274358 -79 64.875 C-78.52680601 69.95670406 -78.05065057 75.03810964 -77.56903076 80.11902237 C-77.37716379 82.15670741 -77.18969024 84.19476577 -77.00244141 86.23287964 C-76.88562012 87.47071198 -76.76879883 88.70854431 -76.6484375 89.98388672 C-76.54708496 91.07563202 -76.44573242 92.16737732 -76.34130859 93.29220581 C-76.07793158 96.09138117 -76.07793158 96.09138117 -75 99 C-74.6690332 98.35788574 -74.33806641 97.71577148 -73.99707031 97.05419922 C-67.5747044 84.609484 -61.08021335 72.21502915 -54.33789062 59.94042969 C-49.44332193 51.01947215 -44.71630556 42.01646652 -40 33 C-26.8 33 -13.6 33 0 33 C0 22.11 0 11.22 0 0 Z " fill="#0049AC" transform="translate(908,220)"/>
<path d="M0 0 C9.80436968 9.31019782 14.77649103 20.24069097 15.75 33.75 C16.18223789 55.10935083 10.5870592 75.94514663 -3.70703125 92.28125 C-15.35790964 103.59208739 -28.79468335 109.04468708 -44.94311523 109.13720703 C-54.20133259 108.95012987 -62.03304634 105.53707448 -68.84765625 99.27734375 C-70.45522608 97.52648079 -71.85588776 95.67362668 -73.25 93.75 C-77.45371108 109.62488407 -80.77343112 125.70429749 -84.25 141.75 C-96.13 141.75 -108.01 141.75 -120.25 141.75 C-116.83275099 123.69937314 -113.18454388 105.71904719 -109.328125 87.7578125 C-108.77694648 85.18143212 -108.22598655 82.60500497 -107.67523193 80.02853394 C-106.53412304 74.69214406 -105.39107448 69.356173 -104.24658203 64.02050781 C-102.77921889 57.17957144 -101.31504063 50.3379574 -99.85185623 43.49612617 C-98.44918536 36.93729191 -97.0449383 30.37879528 -95.640625 23.8203125 C-95.37404335 22.57483768 -95.1074617 21.32936287 -94.83280182 20.04614639 C-94.08232044 16.54118197 -93.33087715 13.0364253 -92.57910156 9.53173828 C-92.3567836 8.49293015 -92.13446564 7.45412201 -91.90541077 6.38383484 C-91.59865669 4.95526405 -91.59865669 4.95526405 -91.28570557 3.49783325 C-91.10876286 2.67249147 -90.93182014 1.8471497 -90.74951553 0.99679756 C-90.2847754 -1.09358188 -89.76937007 -3.17251971 -89.25 -5.25 C-79.02 -5.25 -68.79 -5.25 -58.25 -5.25 C-57.59 -1.29 -56.93 2.67 -56.25 6.75 C-55.156875 5.533125 -54.06375 4.31625 -52.9375 3.0625 C-39.21872548 -10.60788378 -15.07783087 -12.48410193 0 0 Z M-57.9375 27.3125 C-66.90937224 38.3327449 -69.53463269 51.85990899 -68.25 65.75 C-66.62514788 72.18478367 -63.70586244 76.07564366 -58.25 79.75 C-53.27625961 82.57293374 -47.62504143 82.49238434 -42.13671875 81.28515625 C-35.13631321 78.98793579 -30.20297045 74.77123752 -26.5 68.4375 C-25.71977036 66.88987344 -24.96858722 65.32719328 -24.25 63.75 C-23.940625 63.07324219 -23.63125 62.39648438 -23.3125 61.69921875 C-19.67142755 52.40398092 -18.56566842 40.17871952 -22.25 30.75 C-24.94345034 25.82748731 -28.19120763 22.27939619 -33.25 19.75 C-43.58846276 18.85673339 -50.65478384 19.71789022 -57.9375 27.3125 Z " fill="#0049AC" transform="translate(644.25,258.25)"/>
<path d="M0 0 C10.89 0 21.78 0 33 0 C33.33 15.51 33.66 31.02 34 47 C35.98 44.525 35.98 44.525 38 42 C47.34013633 34.77429739 58.31114723 31.83435263 70 33 C82.04370548 34.87694111 92.4809746 40.23462676 100 50 C110.23393067 66.48114939 112.35334155 85.40868126 108.9375 104.3125 C105.50485013 118.09144667 98.49240109 130.1264632 86.33203125 137.75 C75.49313342 143.55979448 63.65499881 144.41459284 51.875 141.375 C43.94715814 138.94494413 38.58293657 135.04818128 33 129 C32.79503906 129.71027344 32.59007812 130.42054688 32.37890625 131.15234375 C32.10949219 132.07144531 31.84007812 132.99054688 31.5625 133.9375 C31.29566406 134.85402344 31.02882813 135.77054688 30.75390625 136.71484375 C30 139 30 139 29 140 C19.43 140 9.86 140 0 140 C0 93.8 0 47.6 0 0 Z M35.5 67.9375 C32.22429962 74.62538827 31.65980544 80.53040398 31.6875 87.875 C31.67138672 88.72191406 31.65527344 89.56882812 31.63867188 90.44140625 C31.63325062 97.52156051 33.05305155 103.57337073 36.5625 109.75 C41.53901077 114.34370224 47.30244173 117.25649762 54.125 117.625 C60.86813759 117.24391216 65.01218984 113.89745515 69.75 109.375 C76.23316107 100.69415721 77.10865816 90.49305751 76 80 C74.30313729 72.58643404 71.55428046 66.31693029 65.2890625 61.75390625 C54.56985053 55.43175878 43.27669972 58.79987783 35.5 67.9375 Z " fill="#004AAC" transform="translate(1169,220)"/>
<path d="M0 0 C13.48263146 -0.39222201 27.38662673 2.42070102 37.89453125 11.19921875 C43.96300404 17.21885071 47.03775607 24.49008151 47.20950317 33.05386353 C47.20739838 33.78632294 47.20529358 34.51878235 47.203125 35.2734375 C47.20008865 36.44620743 47.20008865 36.44620743 47.19699097 37.64266968 C47.01014223 46.91499502 45.0169962 55.74301072 42.9609375 64.75 C39.26532673 81.32346778 37.05101914 97.11385701 35.8359375 114.125 C24.9459375 114.125 14.0559375 114.125 2.8359375 114.125 C2.1759375 110.825 1.5159375 107.525 0.8359375 104.125 C0.24167969 104.65609375 -0.35257813 105.1871875 -0.96484375 105.734375 C-12.72215343 115.7546016 -24.965064 118.03190157 -40.1640625 117.125 C-49.15217759 115.65399087 -56.89438713 111.31801451 -62.6015625 104.1875 C-67.46239992 97.03762557 -67.9674246 89.5603021 -67.1640625 81.125 C-65.39925769 71.87238049 -60.51402954 65.82756063 -53.1640625 60.125 C-39.70043049 51.51297603 -24.12858483 48.47417318 -8.6015625 45.8125 C-7.6027002 45.64081299 -6.60383789 45.46912598 -5.57470703 45.29223633 C0.30772595 44.34763723 5.87923528 43.95902378 11.8359375 44.125 C11.94425919 42.04281638 12.02167291 39.95900871 12.0859375 37.875 C12.13234375 36.71484375 12.17875 35.5546875 12.2265625 34.359375 C12.11206131 31.05833578 12.11206131 31.05833578 9.9921875 28.78125 C5.17990908 25.08486223 -0.24205401 24.41435898 -6.1640625 25.125 C-12.73132603 26.72837872 -18.41011678 28.70739914 -22.4765625 34.3125 C-23.0334375 35.240625 -23.5903125 36.16875 -24.1640625 37.125 C-30.04613906 36.50943385 -35.12503685 34.29839219 -40.5390625 32.0625 C-41.46589844 31.68544922 -42.39273438 31.30839844 -43.34765625 30.91992188 C-45.62208729 29.99373604 -47.89405917 29.06197332 -50.1640625 28.125 C-50.1640625 22.30925802 -47.09713262 20.13312871 -43.1640625 16.125 C-42.55046875 15.49851562 -41.936875 14.87203125 -41.3046875 14.2265625 C-30.13067665 3.65280843 -14.8655304 0.8586588 0 0 Z M-8.1640625 66.875 C-8.91945313 67.03226562 -9.67484375 67.18953125 -10.453125 67.3515625 C-16.96575902 68.80627457 -23.43347309 70.96602244 -28.1640625 75.875 C-30.86088123 80.25733044 -31.04984192 82.05189971 -30.1640625 87.125 C-27.73328056 90.20905458 -24.88942865 91.88321128 -21.1640625 93.125 C-12.6693189 94.04538963 -7.10738506 92.24297598 -0.4765625 87 C4.81378063 80.42281665 7.37493937 73.35971675 8.8359375 65.125 C2.88603587 64.93568495 -2.37117925 65.55034752 -8.1640625 66.875 Z " fill="#0049AC" transform="translate(730.1640625,249.875)"/>
<path d="M0 0 C10.56 0 21.12 0 32 0 C32.04898437 4.26421875 32.09796875 8.5284375 32.1484375 12.921875 C32.19307451 16.35372988 32.23956425 19.78554871 32.28729248 23.21736145 C32.33692851 26.82244213 32.38341301 30.42749617 32.421875 34.03271484 C32.45915083 37.51474096 32.50561548 40.99654123 32.55806351 44.47837067 C32.58521223 46.43217986 32.60320246 48.38610957 32.62094116 50.34002686 C32.57347091 63.74551832 32.57347091 63.74551832 36.875 76.125 C41.25501426 79.98971847 44.82713114 80.37983142 50.52734375 80.25390625 C54.84724356 79.81031464 57.75955156 78.28475017 60.75 75.1875 C66.1044339 65.81724067 65.17023484 54.00812299 65.31640625 43.5546875 C65.3475779 41.67814987 65.3475779 41.67814987 65.37937927 39.76370239 C65.43331028 36.4726118 65.48366909 33.18149322 65.53222656 29.89031982 C65.58288474 26.5179765 65.63829152 23.14571122 65.69335938 19.7734375 C65.80064668 13.18235346 65.90013307 6.59121728 66 0 C76.56 0 87.12 0 98 0 C98 34.32 98 68.64 98 104 C88.76 104 79.52 104 70 104 C69.01 101.36 68.02 98.72 67 96 C66.34 95.01 65.68 94.02 65 93 C64.319375 93.886875 63.63875 94.77375 62.9375 95.6875 C56.49175908 103.30029708 48.93552158 106.33030016 39.046875 107.28515625 C28.18421884 107.61217339 17.15336289 105.63568905 9 98 C-0.59686316 86.3827446 -0.43629296 71.59423822 -0.29296875 57.32421875 C-0.28735872 55.66128425 -0.28309529 53.99834472 -0.28010559 52.33540344 C-0.26876737 48.00352778 -0.23939818 43.67196414 -0.20599365 39.34020996 C-0.16959162 34.1187408 -0.156079 28.89716607 -0.13863373 23.67560577 C-0.10975175 15.78352159 -0.05218888 7.89211914 0 0 Z " fill="#0049AC" transform="translate(1051,256)"/>
<path d="M0 0 C0.72316406 0.00386719 1.44632813 0.00773437 2.19140625 0.01171875 C2.89136719 0.00785156 3.59132813 0.00398438 4.3125 0 C8.82000831 0.00836272 13.10748941 0.40395969 17.56640625 1.13671875 C18.57703125 1.29011719 19.58765625 1.44351563 20.62890625 1.6015625 C41.11282424 4.89751207 61.31253859 13.69301221 74.875 29.89453125 C81.77297712 39.50294013 81.77297712 39.50294013 81.31640625 45.32421875 C80.56640625 48.13671875 80.56640625 48.13671875 78.56640625 50.13671875 C71.85422542 50.09301966 67.16520415 46.86920427 61.56640625 43.44921875 C53.08821992 38.43867636 44.86351149 34.38367052 35.56640625 31.13671875 C34.51066406 30.75 33.45492188 30.36328125 32.3671875 29.96484375 C25.82503183 27.65289117 19.42003862 26.15671103 12.56640625 25.13671875 C10.89964844 24.82347656 10.89964844 24.82347656 9.19921875 24.50390625 C-19.68802476 19.75943174 -53.97927435 27.65680218 -79.74609375 41.3671875 C-82.412866 42.58328503 -84.66234195 41.7665487 -87.43359375 41.13671875 C-85.11142378 36.62138826 -82.4479913 34.12616374 -78.43359375 31.13671875 C-77.77359375 31.13671875 -77.11359375 31.13671875 -76.43359375 31.13671875 C-76.10359375 30.14671875 -75.77359375 29.15671875 -75.43359375 28.13671875 C-73.27146648 26.57012993 -71.1420481 25.15136812 -68.87109375 23.76171875 C-67.90719727 23.16073364 -67.90719727 23.16073364 -66.92382812 22.54760742 C-65.65398955 21.75620525 -64.38238724 20.96762482 -63.10888672 20.18212891 C-61.79603079 19.36288538 -60.5032011 18.51153427 -59.21875 17.6484375 C-47.01884072 9.45287481 -30.09966786 3.11445702 -15.43359375 2.13671875 C-14.44359375 1.80671875 -13.45359375 1.47671875 -12.43359375 1.13671875 C-10.43359375 1.13671875 -8.43359375 1.13671875 -6.43359375 1.13671875 C-4.66814206 -0.62873294 -2.34894695 0.00440703 0 0 Z " fill="#3687DB" transform="translate(1009.43359375,124.86328125)"/>
<path d="M0 0 C0.95390625 -0.00128906 1.9078125 -0.00257813 2.890625 -0.00390625 C3.87546875 -0.00003906 4.8603125 0.00382813 5.875 0.0078125 C6.85984375 0.00394531 7.8446875 0.00007812 8.859375 -0.00390625 C10.29023437 -0.00197266 10.29023437 -0.00197266 11.75 0 C12.61367188 0.00112793 13.47734375 0.00225586 14.3671875 0.00341797 C16.96175147 0.13728858 19.34148407 0.57059236 21.875 1.1328125 C22.87273437 1.31199219 23.87046875 1.49117187 24.8984375 1.67578125 C44.24072724 5.39545235 63.71966692 14.0732324 76 30.0703125 C79.0945869 34.82721946 80.4439503 39.44330951 79.875 45.1328125 C78.87109375 47.421875 78.87109375 47.421875 77.875 49.1328125 C72.93212173 49.47812612 70.03805749 48.5461777 65.69921875 46.2109375 C64.54099609 45.59734375 63.38277344 44.98375 62.18945312 44.3515625 C60.98015394 43.69589279 59.77117123 43.03963907 58.5625 42.3828125 C47.39942491 36.3852374 47.39942491 36.3852374 35.875 31.1328125 C34.93269531 30.73835938 33.99039063 30.34390625 33.01953125 29.9375 C18.03244258 23.96274773 3.61755727 21.93635222 -12.5 21.9453125 C-13.49962265 21.94472336 -13.49962265 21.94472336 -14.5194397 21.94412231 C-31.54657488 21.7741839 -31.54657488 21.7741839 -48.125 25.1328125 C-48.785 24.8028125 -49.445 24.4728125 -50.125 24.1328125 C-50.125 24.7928125 -50.125 25.4528125 -50.125 26.1328125 C-52.88529209 26.83690506 -55.65255942 27.47177287 -58.4375 28.0703125 C-63.10794669 29.09965437 -67.69841799 30.34774185 -72.25 31.8203125 C-74.72197561 32.23230843 -76.71434817 31.73547546 -79.125 31.1328125 C-78.76532726 28.56793866 -78.5133777 27.43781381 -76.43847656 25.80834961 C-75.72143555 25.4294458 -75.00439453 25.05054199 -74.265625 24.66015625 C-73.47929688 24.23541016 -72.69296875 23.81066406 -71.8828125 23.37304688 C-71.05523438 22.94314453 -70.22765625 22.51324219 -69.375 22.0703125 C-67.75491278 21.2049802 -66.13511333 20.33910888 -64.515625 19.47265625 C-63.74500732 19.06660156 -62.97438965 18.66054687 -62.18041992 18.2421875 C-60.59077406 17.38420546 -59.03817224 16.45739197 -57.50390625 15.50390625 C-54.40576177 13.71827618 -51.15941641 12.48369175 -47.8125 11.2578125 C-47.11825928 11.00169189 -46.42401855 10.74557129 -45.70874023 10.48168945 C-24.72804187 2.83968196 -24.72804187 2.83968196 -14.125 2.1328125 C-12.78730883 1.8174219 -11.45411682 1.48258008 -10.125 1.1328125 C-6.69077295 0.35085425 -3.52020657 0.00459728 0 0 Z " fill="#347ED6" transform="translate(986.125,166.8671875)"/>
<path d="M0 0 C7.55437679 6.5200687 11.25041557 14.09702263 12.5 23.9375 C11.82949102 34.16276192 7.46114373 42.16700184 0 49 C-3 51 -3 51 -5.43823242 50.85913086 C-8.48956265 49.83581712 -9.80788236 48.60393717 -11.98828125 46.25390625 C-12.69404297 45.49916016 -13.39980469 44.74441406 -14.12695312 43.96679688 C-14.84818359 43.17337891 -15.56941406 42.37996094 -16.3125 41.5625 C-17.05306641 40.77294922 -17.79363281 39.98339844 -18.55664062 39.16992188 C-24 33.28507344 -24 33.28507344 -24 31 C-23.33613281 30.87625 -22.67226563 30.7525 -21.98828125 30.625 C-16.54655502 29.46024662 -16.54655502 29.46024662 -12.3984375 26.01953125 C-11.60999089 24.58252371 -10.84061395 23.13483333 -10.09375 21.67578125 C-9.55234375 20.84626953 -9.55234375 20.84626953 -9 20 C-6.1875 19.5 -6.1875 19.5 -4 20 C-3.34 18.35 -2.68 16.7 -2 15 C-4.31 15 -6.62 15 -9 15 C-9.66 12.69 -10.32 10.38 -11 8 C-8.69 8 -6.38 8 -4 8 C-3.34 6.68 -2.68 5.36 -2 4 C-6.23580253 3.92592094 -10.47126341 3.87143304 -14.70751953 3.83520508 C-16.14899258 3.82010517 -17.59041959 3.79962342 -19.03173828 3.77368164 C-21.10200343 3.7373487 -23.17166207 3.72028671 -25.2421875 3.70703125 C-26.4885498 3.6913208 -27.73491211 3.67561035 -29.01904297 3.65942383 C-30.4946167 3.82800903 -30.4946167 3.82800903 -32 4 C-32.99 5.485 -32.99 5.485 -34 7 C-32.80503906 7.02126953 -32.80503906 7.02126953 -31.5859375 7.04296875 C-21.8497087 7.48121749 -21.8497087 7.48121749 -18.25 10.4375 C-16 13 -16 13 -16 15 C-17.68029297 15.03867187 -17.68029297 15.03867187 -19.39453125 15.078125 C-20.86722646 15.13440635 -22.3398812 15.19175368 -23.8125 15.25 C-24.91948242 15.27126953 -24.91948242 15.27126953 -26.04882812 15.29296875 C-28.49113504 15.36245091 -28.49113504 15.36245091 -32 16 C-32.99 17.32 -33.98 18.64 -35 20 C-29.06 20 -23.12 20 -17 20 C-18 24 -18 24 -20.5 25.75 C-24.81785028 27.29208938 -28.47038354 27.27177699 -33 27 C-31.96091408 32.65724559 -30.12889856 35.29483133 -25.9375 39.171875 C-23.27906004 41.68024174 -20.95718704 44.43681712 -18.578125 47.20703125 C-17.30348242 48.65520191 -15.94426856 50.02866141 -14.5625 51.375 C-13 53 -13 53 -13 55 C-22.84718986 55.56568963 -31.36566361 54.16346807 -39.1796875 47.8046875 C-45.65966899 41.38032817 -49.26215255 33.91321317 -49.375 24.75 C-49.24086742 16.90771495 -47.1303276 11.25814809 -42.875 4.75 C-30.8960806 -6.70809682 -14.04625845 -10.03647185 0 0 Z " fill="#F7F8FB" transform="translate(423,333)"/>
<path d="M0 0 C1.28302002 0.02618408 2.56604004 0.05236816 3.88793945 0.0793457 C4.571772 0.08642044 5.25560455 0.09349518 5.9601593 0.1007843 C8.14163229 0.12874691 10.32052564 0.19147631 12.5012207 0.25512695 C13.9810013 0.28020798 15.46082219 0.30302151 16.94067383 0.32348633 C20.56585934 0.3785756 24.18953823 0.46485588 27.8137207 0.56762695 C26.54418945 3.0480957 26.54418945 3.0480957 24.8137207 5.56762695 C21.1262207 5.88012695 21.1262207 5.88012695 17.8137207 5.56762695 C18.1437207 6.16575195 18.4737207 6.76387695 18.8137207 7.38012695 C19.8137207 9.56762695 19.8137207 9.56762695 19.8137207 12.56762695 C22.1237207 12.56762695 24.4337207 12.56762695 26.8137207 12.56762695 C26.1537207 14.21762695 25.4937207 15.86762695 24.8137207 17.56762695 C23.1637207 17.56762695 21.5137207 17.56762695 19.8137207 17.56762695 C19.4734082 18.92887695 19.4734082 18.92887695 19.1262207 20.31762695 C17.56516578 24.18309629 16.3961093 25.46492061 12.8137207 27.56762695 C10.11108038 28.16431378 7.59070805 28.37935662 4.8137207 28.56762695 C9.01502153 33.44285658 13.29699685 38.24347939 17.6262207 43.00512695 C18.34612183 43.80321777 18.34612183 43.80321777 19.08056641 44.61743164 C21.63837151 47.47936929 21.63837151 47.47936929 24.8137207 49.56762695 C24.8137207 50.22762695 24.8137207 50.88762695 24.8137207 51.56762695 C21.92018242 52.23872806 19.73672967 52.72021793 16.8137207 52.56762695 C14.29475796 50.77726407 12.72383307 49.39833159 10.7512207 47.13012695 C10.24026855 46.58114746 9.72931641 46.03216797 9.20288086 45.46655273 C7.71384919 43.85488938 6.26043553 42.21726297 4.8137207 40.56762695 C4.06993164 39.73875977 3.32614258 38.90989258 2.55981445 38.0559082 C1.3997194 36.7456547 0.25033672 35.42572643 -0.8815918 34.09106445 C-1.92899911 32.86804394 -3.04767461 31.70623164 -4.1862793 30.56762695 C-4.3112793 27.44262695 -4.3112793 27.44262695 -4.1862793 24.56762695 C-3.35483398 24.44645508 -2.52338867 24.3252832 -1.66674805 24.20043945 C-0.58006836 24.03286133 0.50661133 23.8652832 1.6262207 23.69262695 C2.70516602 23.53020508 3.78411133 23.3677832 4.89575195 23.20043945 C7.98693864 22.71630357 7.98693864 22.71630357 10.8137207 20.56762695 C11.1437207 19.57762695 11.4737207 18.58762695 11.8137207 17.56762695 C5.8737207 17.56762695 -0.0662793 17.56762695 -6.1862793 17.56762695 C-4.1862793 13.56762695 -4.1862793 13.56762695 -3.1862793 12.56762695 C-0.48973076 12.49443074 2.18063528 12.47520158 4.8762207 12.50512695 C6.01414062 12.51189453 6.01414062 12.51189453 7.17504883 12.51879883 C9.05463942 12.53062015 10.93418969 12.54855618 12.8137207 12.56762695 C10.26767474 9.04381009 10.26767474 9.04381009 6.8137207 6.56762695 C4.6093567 6.33812376 2.39979898 6.15686762 0.1887207 6.00512695 C-0.99979492 5.92133789 -2.18831055 5.83754883 -3.4128418 5.7512207 C-4.78569336 5.6603418 -4.78569336 5.6603418 -6.1862793 5.56762695 C-4.61347485 1.896056 -4.04346255 0.72033181 0 0 Z " fill="#0A50AF" transform="translate(394.186279296875,335.432373046875)"/>
<path d="M0 0 C0.95390625 -0.00128906 1.9078125 -0.00257813 2.890625 -0.00390625 C3.87546875 -0.00003906 4.8603125 0.00382813 5.875 0.0078125 C6.85984375 0.00394531 7.8446875 0.00007812 8.859375 -0.00390625 C10.29023437 -0.00197266 10.29023437 -0.00197266 11.75 0 C12.61367188 0.00112793 13.47734375 0.00225586 14.3671875 0.00341797 C16.96175147 0.13728858 19.34148407 0.57059236 21.875 1.1328125 C23.37160156 1.40158203 23.37160156 1.40158203 24.8984375 1.67578125 C38.55387934 4.30182776 55.63558934 9.07889004 64.875 20.1328125 C64.875 21.4528125 64.875 22.7728125 64.875 24.1328125 C61.46497792 22.87930264 58.69260834 21.44055692 55.75 19.3203125 C50.71401075 15.89916939 45.50785831 13.4182755 39.875 11.1328125 C38.97265625 10.76027344 38.0703125 10.38773438 37.140625 10.00390625 C18.60997536 3.06771005 -3.36604637 3.70922969 -22.375 8.3203125 C-25.85317794 9.07391772 -26.93276934 9.12861897 -30.125 8.1328125 C-29.135 7.8028125 -28.145 7.4728125 -27.125 7.1328125 C-26.795 6.1428125 -26.465 5.1528125 -26.125 4.1328125 C-24.3046875 3.4375 -24.3046875 3.4375 -22 3.0078125 C-21.18789063 2.85183594 -20.37578125 2.69585937 -19.5390625 2.53515625 C-16.40766283 2.0132563 -13.27115514 1.55633338 -10.125 1.1328125 C-8.94550781 0.87588623 -8.94550781 0.87588623 -7.7421875 0.61376953 C-5.10030407 0.12827416 -2.68344288 0.0035045 0 0 Z " fill="#4CA1E8" transform="translate(986.125,166.8671875)"/>
<path d="M0 0 C2.11651491 1.07467172 2.11651491 1.07467172 5.59375 2.21020508 C11.36125243 4.28650595 16.81246801 7.41773503 21.84375 10.89770508 C21.84375 11.55770508 21.84375 12.21770508 21.84375 12.89770508 C25.96543689 14.5272092 28.55075357 15.16035109 32.84375 13.89770508 C32.84375 11.58770508 32.84375 9.27770508 32.84375 6.89770508 C33.50375 6.89770508 34.16375 6.89770508 34.84375 6.89770508 C36.07451923 13.29770508 36.07451923 13.29770508 34.90625 16.33520508 C34.555625 16.85083008 34.205 17.36645508 33.84375 17.89770508 C28.90087173 18.2430187 26.00680749 17.31107028 21.66796875 14.97583008 C20.50974609 14.36223633 19.35152344 13.74864258 18.15820312 13.11645508 C16.94890394 12.46078537 15.73992123 11.80453165 14.53125 11.14770508 C3.36817491 5.15012998 3.36817491 5.15012998 -8.15625 -0.10229492 C-9.56970703 -0.69397461 -9.56970703 -0.69397461 -11.01171875 -1.29760742 C-26.02159608 -7.28144462 -40.45225123 -9.29774934 -56.59375 -9.28979492 C-57.26077942 -9.29052002 -57.92780884 -9.29124512 -58.61505127 -9.29199219 C-68.59576502 -9.29079067 -78.31755007 -8.8625735 -88.15625 -7.10229492 C-88.48625 -8.09229492 -88.81625 -9.08229492 -89.15625 -10.10229492 C-59.19162318 -16.76110088 -27.40916248 -14.33294191 0 0 Z " fill="#2850B8" transform="translate(1030.15625,198.102294921875)"/>
<path d="M0 0 C-0.99 0.99 -1.98 1.98 -3 3 C-3.67160156 2.74605469 -4.34320312 2.49210938 -5.03515625 2.23046875 C-20.15060747 -2.97704799 -36.26903918 -4.79211441 -52.16015625 -3.328125 C-57.77609809 -2.84822763 -63.36857052 -2.91185589 -69 -3 C-69.33 -3.66 -69.66 -4.32 -70 -5 C-46.64892066 -9.67857046 -22.41678979 -7.80231023 0 0 Z " fill="#285BB7" transform="translate(1045,152)"/>
<path d="M0 0 C0 0.66 0 1.32 0 2 C0.99 2.33 1.98 2.66 3 3 C2.23034912 3.03963867 1.46069824 3.07927734 0.66772461 3.12011719 C-18.4861056 3.99162925 -18.4861056 3.99162925 -37.1171875 8.09765625 C-40.06855816 9.02145926 -42.9428355 9.55739559 -46 10 C-45.71655273 8.09057617 -45.71655273 8.09057617 -45 6 C-42.30325103 4.8720475 -39.86681559 4.05068046 -37.0625 3.3125 C-36.29139893 3.09754883 -35.52029785 2.88259766 -34.72583008 2.66113281 C-29.83177619 1.34482586 -25.05655579 0.3921833 -19.98046875 0.140625 C-17.98004924 0.05785824 -17.98004924 0.05785824 -16.015625 -0.5078125 C-10.86850649 -1.76466702 -5.09157154 -1.31395395 0 0 Z " fill="#4898E6" transform="translate(1018,126)"/>
<path d="M0 0 C5.43907928 1.85863965 10.4588817 4.09631053 15.50537109 6.84082031 C16.60401489 7.42645752 16.60401489 7.42645752 17.72485352 8.02392578 C23.01652097 10.88111223 28.01691741 14.00203828 32.93115234 17.47363281 C35.06723359 18.82246221 35.06723359 18.82246221 37.42333984 18.27050781 C37.98666016 18.04621094 38.54998047 17.82191406 39.13037109 17.59082031 C39.46037109 15.61082031 39.79037109 13.63082031 40.13037109 11.59082031 C40.79037109 12.25082031 41.45037109 12.91082031 42.13037109 13.59082031 C41.67582564 19.04536577 41.67582564 19.04536577 39.13037109 21.59082031 C32.41892387 21.54712599 27.72807389 18.32433726 22.13037109 14.90332031 C13.68940249 9.89411653 5.39584481 5.83587102 -3.86962891 2.59082031 C-3.86962891 1.93082031 -3.86962891 1.27082031 -3.86962891 0.59082031 C-1.86962891 -0.40917969 -1.86962891 -0.40917969 0 0 Z " fill="#2E53B8" transform="translate(1048.86962890625,153.4091796875)"/>
<path d="M0 0 C0.61552734 0.30421875 1.23105469 0.6084375 1.86523438 0.921875 C7.38187965 3.71904725 9.76688472 5.8028642 11.8125 11.625 C6.96313862 10.1851127 2.8260721 8.13173972 -1.5625 5.6875 C-6.66976803 2.89613654 -11.63736961 0.43728747 -17.1875 -1.375 C-17.1875 -2.035 -17.1875 -2.695 -17.1875 -3.375 C-10.95084541 -5.53384197 -5.54527595 -2.86436879 0 0 Z " fill="#439EE2" transform="translate(1059.1875,135.375)"/>
<path d="M0 0 C0 0.66 0 1.32 0 2 C-0.70640625 2.13535156 -1.4128125 2.27070313 -2.140625 2.41015625 C-9.49411325 3.95291069 -16.47890308 6.07295636 -23.5625 8.5625 C-24.43100586 8.86744385 -25.29951172 9.1723877 -26.19433594 9.48657227 C-30.73292683 11.0856446 -30.73292683 11.0856446 -35.09741211 13.09350586 C-37.4933021 14.23503538 -39.37958305 14.14557872 -42 14 C-40.68 13.67 -39.36 13.34 -38 13 C-38 12.34 -38 11.68 -38 11 C-37.34 11 -36.68 11 -36 11 C-36 10.34 -36 9.68 -36 9 C-7.41528239 -1.91362126 -7.41528239 -1.91362126 0 0 Z " fill="#3163BA" transform="translate(975,149)"/>
<path d="M0 0 C0.66 0.99 1.32 1.98 2 3 C6.23516807 4.37020143 10.59644764 4.07463648 15 4 C14.67 4.66 14.34 5.32 14 6 C12.1796875 6.5625 12.1796875 6.5625 9.875 7 C5.12157629 7.95975328 0.49129903 9.19399149 -4.125 10.6875 C-6.59697561 11.09949593 -8.58934817 10.60266296 -11 10 C-10.81640625 8.203125 -10.81640625 8.203125 -10 6 C-7.71484375 4.296875 -7.71484375 4.296875 -4.9375 2.75 C-3.55884766 1.96882812 -3.55884766 1.96882812 -2.15234375 1.171875 C-1.44207031 0.78515625 -0.73179687 0.3984375 0 0 Z " fill="#2D67C4" transform="translate(918,188)"/>
<path d="M0 0 C0.66 0 1.32 0 2 0 C2.5625 1.9375 2.5625 1.9375 3 4 C2.67 4.33 2.34 4.66 2 5 C2.66 5.33 3.32 5.66 4 6 C4 6.66 4 7.32 4 8 C-0.20379343 11.38354105 -3.59424384 12.7920863 -9 13 C-9.66 12.34 -10.32 11.68 -11 11 C-5.57534247 4.21917808 -5.57534247 4.21917808 -2 2 C-1.34 2 -0.68 2 0 2 C0 1.34 0 0.68 0 0 Z " fill="#2B70C6" transform="translate(933,154)"/>
<path d="M0 0 C4.13304044 1.34647833 6.30793614 3.02592549 9.125 6.3125 C9.78757812 7.07175781 10.45015625 7.83101562 11.1328125 8.61328125 C14.30709365 12.67078288 16.42348957 15.54206618 16.1875 20.8125 C16.16042969 21.60269531 16.13335938 22.39289063 16.10546875 23.20703125 C16.07066406 23.79871094 16.03585937 24.39039063 16 25 C13.37709855 23.68854927 13.25907748 22.56534346 12.1875 19.875 C10.29239281 15.40540757 7.94698334 11.84745047 5 8 C5.33 7.34 5.66 6.68 6 6 C4.68 5.34 3.36 4.68 2 4 C2 3.34 2 2.68 2 2 C1.34 2 0.68 2 0 2 C0 1.34 0 0.68 0 0 Z " fill="#3282CC" transform="translate(1073,146)"/>
<path d="M0 0 C0.76441406 0.17144531 1.52882813 0.34289062 2.31640625 0.51953125 C4.4375 1.1875 4.4375 1.1875 7.4375 3.1875 C5.86162109 3.36925781 5.86162109 3.36925781 4.25390625 3.5546875 C-4.84222768 4.58979103 -4.84222768 4.58979103 -13.8125 6.375 C-17.29067794 7.12860522 -18.37026934 7.18330647 -21.5625 6.1875 C-20.5725 5.8575 -19.5825 5.5275 -18.5625 5.1875 C-18.2325 4.1975 -17.9025 3.2075 -17.5625 2.1875 C-15.63671875 1.4921875 -15.63671875 1.4921875 -13.25 1.0625 C-12.47011719 0.91554687 -11.69023438 0.76859375 -10.88671875 0.6171875 C-10.11972656 0.47539062 -9.35273437 0.33359375 -8.5625 0.1875 C-7.89992188 -0.01230469 -7.23734375 -0.21210938 -6.5546875 -0.41796875 C-4.11386122 -0.90134807 -2.41454258 -0.56788734 0 0 Z " fill="#419AE6" transform="translate(977.5625,168.8125)"/>
<path d="M0 0 C0.33 0.66 0.66 1.32 1 2 C-7.25 2.99 -15.5 3.98 -24 5 C-24.33 4.01 -24.66 3.02 -25 2 C-16.59628191 -0.21462689 -8.6274658 -0.20705918 0 0 Z " fill="#264FB2" transform="translate(966,186)"/>
<path d="M0 0 C0 0.66 0 1.32 0 2 C-14.85 1.505 -14.85 1.505 -30 1 C-30.33 0.34 -30.66 -0.32 -31 -1 C-10.01774713 -2.71122514 -10.01774713 -2.71122514 0 0 Z " fill="#3A94E4" transform="translate(1014,169)"/>
<path d="M0 0 C7.37303523 3.47060444 14.2004184 7.51434446 21 12 C17.68604014 13.08784335 17.16419665 13.07262544 13.75 11.5625 C12.8425 11.046875 11.935 10.53125 11 10 C11 9.34 11 8.68 11 8 C10.319375 7.7525 9.63875 7.505 8.9375 7.25 C5.43134917 5.75802092 2.28379632 3.93164489 -1 2 C-0.67 1.34 -0.34 0.68 0 0 Z " fill="#3378D2" transform="translate(1041,201)"/>
<path d="M0 0 C2.3125 1.8125 2.3125 1.8125 4 4 C4 5.32 4 6.64 4 8 C-0.77609498 6.35821735 -4.79382904 3.73453298 -9 1 C-5.50613247 -0.90978352 -3.85823871 -1.35038355 0 0 Z " fill="#3586E2" transform="translate(1047,183)"/>
<path d="M0 0 C7.08350383 3.20901948 13.041169 7.00552088 19 12 C18.01 12.495 18.01 12.495 17 13 C15.12060547 12.10375977 15.12060547 12.10375977 12.8671875 10.69140625 C12.06152344 10.19189453 11.25585938 9.69238281 10.42578125 9.17773438 C9.16314453 8.37819336 9.16314453 8.37819336 7.875 7.5625 C6.60076172 6.76875977 6.60076172 6.76875977 5.30078125 5.95898438 C3.19593934 4.64641442 1.09605827 3.32653522 -1 2 C-0.67 1.34 -0.34 0.68 0 0 Z " fill="#347AD5" transform="translate(1065,159)"/>
<path d="M0 0 C0.33 0.66 0.66 1.32 1 2 C-0.89091736 2.84442881 -2.78797515 3.67511587 -4.6875 4.5 C-6.27111328 5.19609375 -6.27111328 5.19609375 -7.88671875 5.90625 C-10.85627816 6.94950801 -12.89195063 7.23065301 -16 7 C-14.68 6.67 -13.36 6.34 -12 6 C-12 5.34 -12 4.68 -12 4 C-11.34 4 -10.68 4 -10 4 C-10 3.34 -10 2.68 -10 2 C-6.49223216 0.39644899 -3.85645121 -0.22036864 0 0 Z " fill="#2B5DA8" transform="translate(949,156)"/>
<path d="M0 0 C4.99911924 0.47610659 7.97832683 2.03162219 12 5 C11.67 5.99 11.34 6.98 11 8 C7.04 6.02 3.08 4.04 -1 2 C-0.67 1.34 -0.34 0.68 0 0 Z " fill="#285EC7" transform="translate(1032,200)"/>
<path d="M0 0 C7.79417256 2.64121462 7.79417256 2.64121462 10.9765625 5.546875 C6.82429394 6.73644383 4.58930257 6.33648063 0.6640625 4.609375 C-0.21894531 4.22910156 -1.10195312 3.84882813 -2.01171875 3.45703125 C-2.67558594 3.15667969 -3.33945313 2.85632813 -4.0234375 2.546875 C-4.0234375 1.886875 -4.0234375 1.226875 -4.0234375 0.546875 C-2.0234375 -0.453125 -2.0234375 -0.453125 0 0 Z " fill="#2560B4" transform="translate(1049.0234375,153.453125)"/>
<path d="M0 0 C9.24 0 18.48 0 28 0 C28 0.33 28 0.66 28 1 C22.72 1 17.44 1 12 1 C12 1.66 12 2.32 12 3 C11.319375 2.855625 10.63875 2.71125 9.9375 2.5625 C6.63726918 1.93054091 3.32855574 1.45686059 0 1 C0 0.67 0 0.34 0 0 Z " fill="#2E63C4" transform="translate(959,185)"/>
<path d="M0 0 C0.99 0.33 1.98 0.66 3 1 C3 1.33 3 1.66 3 2 C9.6 2.66 16.2 3.32 23 4 C23 4.33 23 4.66 23 5 C19.43721911 4.86057319 15.8748574 4.71232922 12.3125 4.5625 C10.80139648 4.50352539 10.80139648 4.50352539 9.25976562 4.44335938 C8.28330078 4.40146484 7.30683594 4.35957031 6.30078125 4.31640625 C5.40528564 4.27974854 4.50979004 4.24309082 3.5871582 4.20532227 C0.99221912 3.99938249 -1.46054684 3.56232178 -4 3 C-2.1875 1.4375 -2.1875 1.4375 0 0 Z " fill="#43A4E8" transform="translate(981,167)"/>
<path d="M0 0 C4.875 1.75 4.875 1.75 6 4 C5.67 4.66 5.34 5.32 5 6 C5.66 6 6.32 6 7 6 C9.125 7.875 9.125 7.875 11 10 C11 10.66 11 11.32 11 12 C6.22299579 10.0538131 2.86594658 6.8555998 0.6875 2.1875 C0.460625 1.465625 0.23375 0.74375 0 0 Z " fill="#3F91E1" transform="translate(1068,142)"/>
<path d="M0 0 C0 0.66 0 1.32 0 2 C0.99 2.33 1.98 2.66 3 3 C1.56445975 3.50559908 0.1264798 4.0042749 -1.3125 4.5 C-2.51326172 4.91765625 -2.51326172 4.91765625 -3.73828125 5.34375 C-6 6 -6 6 -9 6 C-8.875 4.125 -8.875 4.125 -8 2 C-5.25822503 0.83328724 -2.99432393 0 0 0 Z " fill="#399BE5" transform="translate(981,130)"/>
<path d="M0 0 C0 0.66 0 1.32 0 2 C0.99 2.33 1.98 2.66 3 3 C-2.61 3 -8.22 3 -14 3 C-12.68 2.34 -11.36 1.68 -10 1 C-9.071875 0.4121875 -9.071875 0.4121875 -8.125 -0.1875 C-5.17865786 -1.31404258 -3.02096204 -0.68658228 0 0 Z " fill="#58ACEC" transform="translate(1018,126)"/>
<path d="M0 0 C1.89510699 -0.08160748 3.79124504 -0.13946459 5.6875 -0.1875 C6.74324219 -0.22230469 7.79898438 -0.25710937 8.88671875 -0.29296875 C12.35422768 0.03333385 14.18432448 1.00969875 17 3 C13.12813552 4.44715727 10.1767672 3.5441918 6.25 2.5625 C5.07953125 2.27503906 3.9090625 1.98757812 2.703125 1.69140625 C1.81109375 1.46324219 0.9190625 1.23507813 0 1 C0 0.67 0 0.34 0 0 Z " fill="#2650B5" transform="translate(1015,147)"/>
<path d="M0 0 C2.27538323 0.66613335 2.27538323 0.66613335 4.6875 1.125 C5.89986328 1.37636719 5.89986328 1.37636719 7.13671875 1.6328125 C7.75160156 1.75398437 8.36648438 1.87515625 9 2 C9 2.33 9 2.66 9 3 C3.20803845 3.25182442 -2.43592034 2.72678334 -8 1 C-8.33 0.34 -8.66 -0.32 -9 -1 C-3.375 -2.25 -3.375 -2.25 0 0 Z " fill="#5CB1EE" transform="translate(1032,129)"/>
<path d="M0 0 C-0.33 0.66 -0.66 1.32 -1 2 C-2.890625 2.59765625 -2.890625 2.59765625 -5.25 3.0625 C-6.05824219 3.22621094 -6.86648438 3.38992187 -7.69921875 3.55859375 C-8.83810547 3.77708984 -8.83810547 3.77708984 -10 4 C-11.5159375 4.309375 -11.5159375 4.309375 -13.0625 4.625 C-13.701875 4.74875 -14.34125 4.8725 -15 5 C-10.37008461 -0.09290693 -6.62187269 -0.22072909 0 0 Z " fill="#1D3AA4" transform="translate(933,192)"/>
<path d="M0 0 C2.0625 0.4375 2.0625 0.4375 4 1 C4 1.66 4 2.32 4 3 C-0.29 3.66 -4.58 4.32 -9 5 C-9.33 4.01 -9.66 3.02 -10 2 C-9.04287109 1.90912109 -9.04287109 1.90912109 -8.06640625 1.81640625 C-6.82697266 1.69072266 -6.82697266 1.69072266 -5.5625 1.5625 C-4.73878906 1.48128906 -3.91507813 1.40007812 -3.06640625 1.31640625 C-1.01337975 1.21069185 -1.01337975 1.21069185 0 0 Z " fill="#3480CA" transform="translate(973,168)"/>
<path d="M0 0 C1.051875 0.8353125 1.051875 0.8353125 2.125 1.6875 C4.10514432 2.41101427 6.10321315 3.09015389 8.125 3.6875 C8.125 4.3475 8.125 5.0075 8.125 5.6875 C3.07244036 5.05593005 -1.17093201 3.55290627 -5.875 1.6875 C-5.875 1.0275 -5.875 0.3675 -5.875 -0.3125 C-3.25070842 -1.34347169 -2.37873084 -1.66511159 0 0 Z " fill="#57ADED" transform="translate(1047.875,132.3125)"/>
<path d="M0 0 C0.99 0.33 1.98 0.66 3 1 C2 4 2 4 -0.1796875 5.16796875 C-1.06914063 5.50441406 -1.95859375 5.84085938 -2.875 6.1875 C-3.75929688 6.53167969 -4.64359375 6.87585938 -5.5546875 7.23046875 C-8 8 -8 8 -11 8 C-11 7.34 -11 6.68 -11 6 C-10.45730469 5.81824219 -9.91460938 5.63648438 -9.35546875 5.44921875 C-8.28232422 5.07216797 -8.28232422 5.07216797 -7.1875 4.6875 C-6.47980469 4.44386719 -5.77210938 4.20023438 -5.04296875 3.94921875 C-2.85527627 2.93275742 -1.59103282 1.79179406 0 0 Z " fill="#3D94E0" transform="translate(950,174)"/>
<path d="M0 0 C0 0.66 0 1.32 0 2 C-3.63 2.66 -7.26 3.32 -11 4 C-11 3.01 -11 2.02 -11 1 C-6.87831311 -0.62950412 -4.29299643 -1.26264601 0 0 Z " fill="#274CB1" transform="translate(975,149)"/>
<path d="M0 0 C2.88437779 1.29299694 4.87219421 2.65941363 7 5 C6.34 5 5.68 5 5 5 C5 5.99 5 6.98 5 8 C3.0625 7.25 3.0625 7.25 1 6 C0.20124132 3.86997684 0 2.26695035 0 0 Z " fill="#308DD7" transform="translate(1050,187)"/>
<path d="M0 0 C4.3890815 0.51035831 7.33708062 1.52214277 11 4 C9.4375 5.25 9.4375 5.25 7 6 C4.42998985 4.93237266 2.3469597 3.53455057 0 2 C0 1.34 0 0.68 0 0 Z " fill="#2F58C3" transform="translate(1058,159)"/>
<path d="M0 0 C5.98511371 0.34302035 10.75117306 0.82307843 16 4 C16 4.66 16 5.32 16 6 C10.63904723 4.41078475 5.29156027 2.81027062 0 1 C0 0.67 0 0.34 0 0 Z " fill="#224BA5" transform="translate(1016,195)"/>
<path d="M0 0 C4.455 0.99 4.455 0.99 9 2 C8 4 8 4 6.25 4.6875 C3.60760177 5.05449975 1.57327078 4.64331769 -1 4 C-0.67 2.68 -0.34 1.36 0 0 Z " fill="#2559B1" transform="translate(908,194)"/>
<path d="M0 0 C4.29 0.66 8.58 1.32 13 2 C13 2.33 13 2.66 13 3 C7.51053913 4.12029814 4.16569441 3.79217969 -1 2 C-0.67 1.34 -0.34 0.68 0 0 Z " fill="#2962C0" transform="translate(994,187)"/>
<path d="M0 0 C4.62 0 9.24 0 14 0 C11 3 11 3 8.30078125 3.07421875 C6.82158203 2.88279297 6.82158203 2.88279297 5.3125 2.6875 C3.82169922 2.50767578 3.82169922 2.50767578 2.30078125 2.32421875 C1.54152344 2.21722656 0.78226563 2.11023438 0 2 C0 1.34 0 0.68 0 0 Z " fill="#2E66B8" transform="translate(1008,146)"/>
<path d="M0 0 C0.66 0 1.32 0 2 0 C3.23076923 6.4 3.23076923 6.4 2.0625 9.4375 C1.711875 9.953125 1.36125 10.46875 1 11 C0.34 11 -0.32 11 -1 11 C-0.73958333 9.01432292 -0.47916667 7.02864583 -0.21875 5.04296875 C0.053233 2.84528294 0.053233 2.84528294 0 0 Z " fill="#2460C0" transform="translate(1063,205)"/>
<path d="M0 0 C6.625 0.75 6.625 0.75 10 3 C10 3.66 10 4.32 10 5 C6.05140217 4.4359146 3.29120954 3.2568294 0 1 C0 0.67 0 0.34 0 0 Z " fill="#3B8AE0" transform="translate(1032,177)"/>
<path d="M0 0 C0.99 0.66 1.98 1.32 3 2 C-2.625 7 -2.625 7 -6 7 C-4.60667426 3.63279613 -3.0210714 2.0140476 0 0 Z " fill="#3E89D9" transform="translate(930,157)"/>
<path d="M0 0 C0.66 0.66 1.32 1.32 2 2 C1.54545455 7.45454545 1.54545455 7.45454545 -1 10 C-2.32 10 -3.64 10 -5 10 C-5 9.34 -5 8.68 -5 8 C-4.0409375 7.690625 -4.0409375 7.690625 -3.0625 7.375 C-0.65074923 6.10461791 -0.65074923 6.10461791 -0.25 2.875 C-0.1675 1.92625 -0.085 0.9775 0 0 Z " fill="#3844BE" transform="translate(1089,165)"/>
<path d="M0 0 C0.66 0.33 1.32 0.66 2 1 C0.71451591 2.33929505 -0.57858155 3.67128643 -1.875 5 C-2.59429687 5.7425 -3.31359375 6.485 -4.0546875 7.25 C-6 9 -6 9 -8 9 C-6.4169423 4.7257442 -3.49431596 2.73468206 0 0 Z " fill="#CFD9EC" transform="translate(386,146)"/>
<path d="M0 0 C0.66 0.33 1.32 0.66 2 1 C2 1.99 2 2.98 2 4 C-0.31 4.33 -2.62 4.66 -5 5 C-5 4.01 -5 3.02 -5 2 C-2.625 0.9375 -2.625 0.9375 0 0 Z " fill="#377EC9" transform="translate(965,135)"/>
<path d="M0 0 C-2.52480693 2.52480693 -4.13823034 2.55738633 -7.625 3.125 C-8.62789062 3.29257813 -9.63078125 3.46015625 -10.6640625 3.6328125 C-11.43492187 3.75398437 -12.20578125 3.87515625 -13 4 C-13 3.01 -13 2.02 -13 1 C-8.59085217 -0.10228696 -4.51617599 -0.07654536 0 0 Z " fill="#3566D3" transform="translate(1003,126)"/>
<path d="M0 0 C0 0.99 0 1.98 0 3 C-3.08809695 4.76462683 -4.23312136 5 -8 5 C-8 4.34 -8 3.68 -8 3 C-5.36 2.01 -2.72 1.02 0 0 Z " fill="#327DC5" transform="translate(947,175)"/>
<path d="M0 0 C0.66 0.33 1.32 0.66 2 1 C0.02 3.31 -1.96 5.62 -4 8 C-4.66 7.67 -5.32 7.34 -6 7 C-6 6.01 -6 5.02 -6 4 C-3 1.8125 -3 1.8125 0 0 Z " fill="#3D7ADD" transform="translate(940,149)"/>
<path d="M0 0 C6.75 0.875 6.75 0.875 9 2 C9 2.66 9 3.32 9 4 C6.36 3.67 3.72 3.34 1 3 C0.67 2.01 0.34 1.02 0 0 Z " fill="#3689CB" transform="translate(1015,170)"/>
<path d="M0 0 C4.40114397 0.50298788 6.71195019 2.08772731 10 5 C6.28111761 4.49287967 3.26545761 3.88391785 0 2 C0 1.34 0 0.68 0 0 Z " fill="#316CCC" transform="translate(1052,209)"/>
<path d="M0 0 C-0.33 1.32 -0.66 2.64 -1 4 C-1.66 4 -2.32 4 -3 4 C-3 4.66 -3 5.32 -3 6 C-4.32 5.34 -5.64 4.68 -7 4 C-2.25 0 -2.25 0 0 0 Z " fill="#336DCD" transform="translate(917,190)"/>
<path d="M0 0 C0.33 1.65 0.66 3.3 1 5 C-4.75 3.25 -4.75 3.25 -7 1 C-4.50935112 0.31292445 -2.62113708 0 0 0 Z " fill="#3C91E2" transform="translate(1045,182)"/>
<path d="M0 0 C3.91402949 1.26941497 5.79072873 2.51167694 8 6 C7.01 6.495 7.01 6.495 6 7 C4 5.625 4 5.625 2 4 C2 3.34 2 2.68 2 2 C1.34 2 0.68 2 0 2 C0 1.34 0 0.68 0 0 Z " fill="#3387DB" transform="translate(1073,146)"/>
<path d="M0 0 C3.4375 0.8125 3.4375 0.8125 7 2 C7.33 2.99 7.66 3.98 8 5 C4.5625 4.1875 4.5625 4.1875 1 3 C0.67 2.01 0.34 1.02 0 0 Z " fill="#3E93E5" transform="translate(1047,131)"/>
<path d="M0 0 C2.64 0.33 5.28 0.66 8 1 C8.33 2.32 8.66 3.64 9 5 C4.545 3.02 4.545 3.02 0 1 C0 0.67 0 0.34 0 0 Z " fill="#1930C8" transform="translate(1035,203)"/>
<path d="M0 0 C2.64 0.66 5.28 1.32 8 2 C5 4 5 4 1.8125 3.625 C0.884375 3.41875 -0.04375 3.2125 -1 3 C-0.67 2.01 -0.34 1.02 0 0 Z " fill="#1E6AD5" transform="translate(923,163)"/>
<path d="M0 0 C2.64 0 5.28 0 8 0 C4.93882432 2.62386487 4.26826873 3 0 3 C0 2.01 0 1.02 0 0 Z " fill="#3085C5" transform="translate(1004,125)"/>
<path d="" fill="#000000" transform="translate(0,0)"/>
<path d="" fill="#000000" transform="translate(0,0)"/>
<path d="" fill="#000000" transform="translate(0,0)"/>
<path d="" fill="#000000" transform="translate(0,0)"/>
<path d="" fill="#000000" transform="translate(0,0)"/>
</svg>
