<?xml version="1.0" encoding="utf-8"?>
<!-- Generator: Adobe Illustrator 28.5.0, SVG Export Plug-In . SVG Version: 9.03 Build 54727)  -->
<svg version="1.0" id="Layer_1" xmlns="http://www.w3.org/2000/svg" xmlns:xlink="http://www.w3.org/1999/xlink" x="0px" y="0px"
	 viewBox="0 0 495.33 482.67" style="enable-background:new 0 0 495.33 482.67;" xml:space="preserve">
<style type="text/css">
	.st0{fill:#3C67B1;}
	.st1{fill:none;stroke:#444344;stroke-width:0.9239;stroke-miterlimit:10;}
	.st2{fill:#FFFFFF;}
</style>
<rect class="st0" width="499.78" height="488.44"/>
<g>
	<g>
		<path class="st2" d="M108.45,352.01C81,318.55,66.53,276.26,67.72,232.94c1.32-48.06,21.28-92.74,56.2-125.79
			s80.61-50.54,128.68-49.21c48.06,1.32,92.74,21.28,125.79,56.2c33.05,34.92,50.53,80.62,49.21,128.68
			c-1.1,39.96-14.96,77.44-40.09,108.4l-10.34-8.39c23.27-28.67,36.1-63.38,37.12-100.37c1.22-44.51-14.96-86.83-45.57-119.16
			c-30.61-32.34-71.97-50.82-116.48-52.04c-44.51-1.23-86.83,14.96-119.16,45.57c-32.34,30.61-50.82,71.97-52.04,116.48
			c-1.1,40.11,12.29,79.27,37.71,110.25L108.45,352.01z"/>
	</g>
	<g>
		<g>
			<g>
				<path class="st2" d="M124.18,339.1c-24.35-29.68-37.18-67.18-36.12-105.6c1.17-42.63,18.87-82.25,49.84-111.57
					c30.97-29.32,71.51-44.82,114.14-43.64c42.63,1.17,82.25,18.87,111.57,49.84c29.32,30.97,44.82,71.51,43.64,114.14
					c-0.97,35.44-13.27,68.68-35.55,96.14l-3.62-2.94c21.63-26.65,33.56-58.92,34.51-93.33c1.14-41.39-13.91-80.74-42.37-110.8
					S293.3,84.09,251.92,82.95c-41.38-1.13-80.73,13.91-110.8,42.37c-30.07,28.46-47.25,66.93-48.39,108.31
					c-1.02,37.3,11.43,73.71,35.06,102.51L124.18,339.1z"/>
			</g>
		</g>
	</g>
</g>
<g>
	<path class="st2" d="M314.18,166.63c0,2.55-0.08,5.04-0.24,7.45c-0.16,2.39-0.67,5.55-1.53,9.47c-0.87,3.92-2.01,7.52-3.43,10.8
		c-1.41,3.28-3.5,6.72-6.26,10.32c-2.75,3.61-6.03,6.6-9.81,9.01c-3.78,2.39-8.59,4.39-14.41,6c-5.83,1.6-12.37,2.4-19.61,2.4h-57.5
		c-4.25,0-7.7-3.5-7.7-7.82v-22.02h0.03c8.89,0,20.09,0,31.8-0.01h34.95c4.47,0,7.86-2.24,9.53-6.3c1.65-4,0.87-7.93-2.23-11.1
		c-10.97-11.21-22.07-22.46-32.42-32.95c-2.38-2.42-5.35-3.41-8.59-2.86c-3.94,0.67-6.68,3-7.93,6.76
		c-1.28,3.91-0.43,7.53,2.46,10.5c4.24,4.33,8.51,8.65,12.99,13.16l2.44,2.48h-43.03l-0.01-55.08c0.01-4.31,3.45-7.8,7.69-7.8h57.53
		c15.59,0,28.71,5.16,39.34,15.48C308.87,134.82,314.18,148.87,314.18,166.63z"/>
	<path class="st2" d="M314.18,283.65c0,2.55-0.08,5.04-0.24,7.45c-0.16,2.39-0.67,5.55-1.53,9.47c-0.87,3.92-2.01,7.52-3.43,10.8
		c-1.41,3.28-3.5,6.72-6.26,10.32c-2.75,3.61-6.03,6.6-9.81,9c-3.78,2.39-8.59,4.39-14.41,6c-5.83,1.6-12.37,2.4-19.61,2.4h-57.5
		c-4.25,0-7.7-3.5-7.7-7.82v-11.16l-0.02-86.27c0.01-4.31,3.45-7.8,7.69-7.8h57.53c15.59,0,28.71,5.16,39.34,15.48
		c4.57,4.44,8.16,9.56,10.77,15.37c-8.1,0-18.13,0-28.74,0.01H242c-4.47,0-7.86,2.23-9.54,6.3c-1.65,4-0.86,7.94,2.24,11.1
		c10.9,11.13,22.03,22.41,32.42,32.95c1.96,1.99,4.31,3.01,6.88,3.01c0.56,0,1.13-0.06,1.71-0.15c3.94-0.67,6.68-3,7.93-6.77
		c1.28-3.9,0.43-7.52-2.47-10.49c-4.24-4.34-8.51-8.66-13-13.17l-2.42-2.46h48.17C314.1,279.31,314.18,281.46,314.18,283.65z"/>
</g>
<g>
	<g>
		<path class="st2" d="M116.49,355.66l36.95-13.34l6.3,7.78l-20.54,33.58l-5.38-6.64l10.16-15.94c1.35-2.02,2.84-4.17,4.47-6.45
			s3.43-4.76,5.42-7.45l1.11,1.37c-3.03,1.4-5.82,2.68-8.38,3.84c-2.55,1.16-4.94,2.19-7.16,3.09l-17.62,6.74L116.49,355.66z
			 M128.17,356.59l4.66-3.78l12.54,15.48l-4.66,3.78L128.17,356.59z"/>
		<path class="st2" d="M161.7,402.57c-2.47-1.79-4.34-3.71-5.6-5.77c-1.26-2.06-1.86-4.19-1.79-6.38c0.07-2.2,0.85-4.38,2.36-6.55
			l6.05,4.38c-0.69,1.06-1.02,2.14-1,3.23c0.02,1.09,0.35,2.14,0.99,3.14c0.64,1,1.54,1.92,2.69,2.76c1.11,0.81,2.21,1.35,3.27,1.63
			c1.07,0.28,2.04,0.3,2.92,0.05c0.88-0.24,1.59-0.74,2.14-1.5c0.5-0.69,0.71-1.41,0.65-2.17s-0.36-1.59-0.9-2.49
			s-1.29-1.9-2.26-2.99l-2.72-3.19c-2.22-2.54-3.57-5.01-4.06-7.41c-0.49-2.39,0.05-4.68,1.62-6.86c1.31-1.82,2.95-3.05,4.92-3.7
			c1.97-0.65,4.08-0.73,6.35-0.25s4.52,1.53,6.75,3.14c2.26,1.63,3.95,3.44,5.07,5.42c1.12,1.98,1.66,4,1.6,6.04
			c-0.05,2.05-0.72,4-1.99,5.84l-5.99-4.33c0.8-1.33,0.97-2.69,0.54-4.07c-0.44-1.38-1.44-2.64-3-3.77
			c-1.05-0.76-2.06-1.26-3.04-1.5c-0.98-0.25-1.86-0.25-2.65-0.01c-0.79,0.24-1.43,0.71-1.92,1.39c-0.52,0.71-0.73,1.46-0.65,2.25
			c0.08,0.79,0.39,1.61,0.91,2.47c0.53,0.86,1.18,1.74,1.96,2.63l2.29,2.67c1.13,1.27,2.08,2.55,2.85,3.86
			c0.77,1.3,1.3,2.6,1.61,3.88c0.31,1.29,0.34,2.57,0.08,3.84c-0.26,1.27-0.83,2.52-1.71,3.74c-1.33,1.84-2.96,3.11-4.89,3.8
			c-1.92,0.69-4.03,0.77-6.32,0.24C166.56,405.52,164.18,404.36,161.7,402.57z"/>
		<path class="st2" d="M203.03,423.87c-2.9-0.97-5.25-2.24-7.08-3.83s-3.03-3.44-3.62-5.55c-0.59-2.11-0.5-4.43,0.29-6.95l7.09,2.36
			c-0.34,1.22-0.33,2.34,0.01,3.38c0.34,1.03,0.97,1.93,1.88,2.7c0.91,0.77,2.04,1.38,3.39,1.83c1.3,0.44,2.51,0.63,3.61,0.58
			c1.1-0.05,2.04-0.33,2.81-0.82s1.3-1.19,1.59-2.07c0.27-0.8,0.26-1.56-0.03-2.27c-0.29-0.71-0.82-1.41-1.6-2.11
			c-0.78-0.7-1.8-1.42-3.05-2.17l-3.55-2.23c-2.88-1.76-4.91-3.71-6.1-5.85c-1.19-2.14-1.36-4.48-0.5-7.03
			c0.71-2.13,1.9-3.79,3.59-5c1.68-1.21,3.68-1.92,5.99-2.14c2.31-0.22,4.77,0.11,7.38,0.98c2.64,0.88,4.79,2.1,6.46,3.65
			s2.78,3.32,3.34,5.29c0.56,1.97,0.51,4.03-0.15,6.17l-7.01-2.34c0.36-1.51,0.12-2.85-0.71-4.04c-0.83-1.19-2.16-2.09-3.99-2.7
			c-1.22-0.41-2.34-0.58-3.35-0.53c-1.01,0.06-1.85,0.32-2.53,0.78s-1.15,1.1-1.42,1.9c-0.28,0.83-0.26,1.62,0.05,2.34
			c0.31,0.73,0.85,1.42,1.61,2.09c0.76,0.67,1.65,1.31,2.66,1.92l2.99,1.86c1.46,0.87,2.75,1.81,3.87,2.83
			c1.12,1.01,2.02,2.09,2.7,3.22c0.68,1.14,1.09,2.35,1.23,3.64c0.14,1.29-0.03,2.65-0.51,4.08c-0.72,2.16-1.89,3.85-3.52,5.09
			s-3.62,1.94-5.96,2.12C208.54,425.22,205.92,424.83,203.03,423.87z"/>
		<path class="st2" d="M251.54,431.15c-3.1,0.08-5.82-0.41-8.17-1.48c-2.34-1.07-4.18-2.6-5.52-4.6c-1.33-2-2.04-4.34-2.11-7.03
			l-0.63-24.1l7.64-0.2l0.61,23.47c0.04,1.44,0.39,2.72,1.07,3.82c0.67,1.1,1.61,1.96,2.8,2.57c1.19,0.61,2.56,0.89,4.12,0.85
			c1.58-0.04,2.94-0.4,4.1-1.07c1.16-0.67,2.04-1.57,2.65-2.71c0.61-1.14,0.89-2.43,0.86-3.87l-0.61-23.48l7.67-0.2l0.63,24.1
			c0.07,2.69-0.51,5.07-1.74,7.13c-1.23,2.07-2.99,3.69-5.28,4.88C257.34,430.43,254.64,431.07,251.54,431.15z"/>
		<path class="st2" d="M286.64,425.84l-13.06-34.73l13.77-5.18c2.65-1,5.1-1.38,7.33-1.16c2.23,0.22,4.17,1,5.8,2.31
			c1.63,1.32,2.88,3.13,3.75,5.43c0.86,2.28,1.09,4.45,0.7,6.5c-0.39,2.05-1.38,3.87-2.96,5.48c-1.58,1.61-3.72,2.92-6.42,3.93
			l-9.25,3.48l-2.17-5.76l8.38-3.15c1.41-0.53,2.51-1.18,3.3-1.95s1.27-1.64,1.45-2.61c0.18-0.97,0.06-2.03-0.37-3.16
			c-0.44-1.17-1.05-2.06-1.83-2.68c-0.78-0.62-1.72-0.97-2.82-1.04s-2.37,0.16-3.8,0.7L283,394.3l10.84,28.83L286.64,425.84z
			 M306.25,418.47l-14.36-12.61l7.77-2.92l14.53,12.55L306.25,418.47z"/>
		<path class="st2" d="M328.33,407.3l-21.65-30.13l20.71-14.88l3.72,5.18l-14.46,10.39l5.17,7.2l13.36-9.6l3.65,5.08l-13.36,9.6
			l5.39,7.5l14.48-10.41l3.72,5.18L328.33,407.3z"/>
		<path class="st2" d="M338.36,351.02l28.7,23.52l-4.88,5.95l-28.7-23.52L338.36,351.02z M370.54,370.28l-6.15,7.51l-5.05-4.14
			l5.92-7.22c1.54-1.88,2.5-3.73,2.87-5.54c0.37-1.81,0.12-3.6-0.74-5.37s-2.35-3.52-4.47-5.26c-2.11-1.73-4.11-2.83-6-3.33
			c-1.89-0.49-3.69-0.38-5.39,0.33c-1.7,0.71-3.31,2-4.84,3.87l-6.06,7.39l-5.05-4.14l6.35-7.74c2.39-2.92,5.02-4.95,7.89-6.11
			c2.87-1.15,5.84-1.42,8.91-0.79c3.07,0.62,6.09,2.15,9.06,4.58c2.98,2.44,5.07,5.11,6.29,8c1.21,2.89,1.53,5.87,0.96,8.93
			C374.45,364.34,372.96,367.34,370.54,370.28z"/>
	</g>
</g>
</svg>
