<?xml version="1.0" encoding="utf-8"?>
<!-- Generator: Adobe Illustrator 28.5.0, SVG Export Plug-In . SVG Version: 9.03 Build 54727)  -->
<svg version="1.0" id="Layer_1" xmlns="http://www.w3.org/2000/svg" xmlns:xlink="http://www.w3.org/1999/xlink" x="0px" y="0px"
	 viewBox="0 0 204.63 225" style="enable-background:new 0 0 204.63 225;" xml:space="preserve">
<style type="text/css">
	.st0{fill:#FFFFFF;}
	.st1{fill:#F26727;}
</style>
<g>
	<path class="st0" d="M151.52,67.21c0,2.03-0.07,4.01-0.19,5.92c-0.13,1.9-0.54,4.41-1.22,7.53c-0.69,3.11-1.59,5.98-2.72,8.58
		c-1.12,2.6-2.78,5.34-4.97,8.2c-2.19,2.86-4.79,5.24-7.79,7.15c-3,1.9-6.82,3.49-11.45,4.77c-4.63,1.27-9.82,1.91-15.58,1.91H61.91
		c-3.38,0-6.12-2.78-6.12-6.21V87.55h0.02c7.06,0,15.96,0,25.26-0.01h27.76c3.55,0,6.24-1.78,7.57-5.01
		c1.31-3.18,0.69-6.3-1.77-8.82c-8.72-8.91-17.53-17.84-25.76-26.18c-1.89-1.92-4.25-2.71-6.82-2.28c-3.13,0.53-5.31,2.39-6.3,5.37
		c-1.02,3.1-0.35,5.98,1.95,8.34c3.37,3.44,6.76,6.87,10.32,10.45l1.94,1.97H55.79l-0.01-43.76c0.01-3.42,2.74-6.2,6.11-6.2h45.7
		c12.39,0,22.81,4.1,31.25,12.3C147.29,41.94,151.52,53.1,151.52,67.21z"/>
	<path class="st0" d="M151.52,160.17c0,2.03-0.07,4.01-0.19,5.92c-0.13,1.9-0.54,4.41-1.22,7.53c-0.69,3.11-1.59,5.98-2.72,8.58
		c-1.12,2.6-2.78,5.34-4.97,8.2c-2.19,2.86-4.79,5.24-7.79,7.15c-3,1.9-6.82,3.49-11.45,4.77c-4.63,1.27-9.82,1.91-15.58,1.91H61.91
		c-3.38,0-6.12-2.78-6.12-6.21v-8.87l-0.01-68.53c0.01-3.42,2.74-6.2,6.11-6.2h45.7c12.39,0,22.81,4.1,31.25,12.3
		c3.63,3.53,6.48,7.59,8.55,12.21c-6.43,0-14.4,0-22.83,0.01H94.18c-3.55,0-6.24,1.78-7.58,5.01c-1.31,3.18-0.68,6.31,1.78,8.82
		c8.66,8.84,17.5,17.81,25.76,26.18c1.56,1.58,3.42,2.39,5.46,2.39c0.45,0,0.9-0.04,1.36-0.12c3.13-0.53,5.31-2.39,6.3-5.38
		c1.02-3.1,0.35-5.97-1.96-8.33c-3.37-3.45-6.76-6.88-10.32-10.47l-1.92-1.95h38.27C151.45,156.73,151.52,158.43,151.52,160.17z"/>
</g>
</svg>
